<?xml version="1.0" encoding="UTF-8"?>
<svg width="1200pt" height="1200pt" version="1.1" viewBox="0 0 1200 1200" xmlns="http://www.w3.org/2000/svg">
 <path d="m789.84 321.12 25.801 11.039c10.73 4.6836 19.859 12.406 26.258 22.215 6.3945 9.8086 9.7812 21.273 9.7422 32.984v80.039c0.22266 45.258 15.035 89.234 42.238 125.4l5.3984 7.1992-5.3984 7.1992c-27.074 36.215-41.758 80.188-41.879 125.4v80.039c0.039062 11.711-3.3477 23.176-9.7422 32.984-6.3984 9.8086-15.523 17.531-26.258 22.215l-25.801 11.039c-11.832 5.0586-20.066 16.047-21.602 28.824s3.8633 25.402 14.16 33.121c10.297 7.7148 23.93 9.3555 35.762 4.2969l25.801-11.039v-0.003906c23.703-10.23 43.883-27.188 58.043-48.773 14.164-21.586 21.688-46.848 21.637-72.664v-80.039c0.058594-31.055 10.633-61.168 30-85.441l2.6406-3.3594c9.9609-12.449 15.387-27.918 15.387-43.859 0-15.945-5.4258-31.414-15.387-43.863l-2.6406-3.2383c-19.367-24.273-29.941-54.387-30-85.441v-80.039c-0.003906-25.836-7.5898-51.102-21.82-72.668-14.227-21.566-34.469-38.48-58.219-48.652l-25.801-11.039c-11.832-5.0586-25.465-3.4219-35.762 4.2969-10.297 7.7188-15.695 20.344-14.16 33.121 1.5352 12.777 9.7695 23.762 21.602 28.82z"/>
 <path d="m246 647.16c19.375 24.266 29.953 54.387 30 85.441v80.039c0.003906 25.836 7.5898 51.102 21.82 72.668 14.227 21.566 34.469 38.48 58.219 48.652l25.801 11.039c11.832 5.0586 25.465 3.4219 35.762-4.2969 10.297-7.7188 15.695-20.344 14.16-33.121-1.5352-12.777-9.7695-23.762-21.602-28.82l-26.16-10.922c-10.734-4.6836-19.859-12.406-26.258-22.215-6.3945-9.8086-9.7812-21.273-9.7422-32.984v-80.039c-0.11328-45.219-14.797-89.191-41.879-125.4l-5.3984-7.1992 5.3984-7.1992c27.09-36.207 41.777-80.184 41.879-125.4v-80.039c-0.039062-11.711 3.3477-23.176 9.7422-32.984 6.3984-9.8086 15.523-17.531 26.258-22.215l25.801-11.039c11.832-5.0586 20.066-16.047 21.602-28.824s-3.8633-25.402-14.16-33.121c-10.297-7.7148-23.93-9.3555-35.762-4.2969l-25.801 11.039v0.003906c-23.703 10.23-43.883 27.188-58.043 48.773-14.164 21.586-21.688 46.848-21.637 72.664v80.039c-0.046875 31.055-10.625 61.176-30 85.441l-2.6406 3.3594c-9.9609 12.449-15.387 27.918-15.387 43.859 0 15.945 5.4258 31.414 15.387 43.863z"/>
 <path d="m504 540c0 19.883-16.117 36-36 36s-36-16.117-36-36 16.117-36 36-36 36 16.117 36 36"/>
 <path d="m768 540c0 19.883-16.117 36-36 36s-36-16.117-36-36 16.117-36 36-36 36 16.117 36 36"/>
 <path d="m545.64 748.08c19.004 16.137 44.195 22.996 68.758 18.723 15.766-2.8594 30.398-10.125 42.207-20.957 11.809-10.832 20.309-24.785 24.516-40.242 3.543-12.891 3.832-26.453 0.83984-39.48-1.3164-5.2031-4.332-9.8125-8.5742-13.098-4.2422-3.2852-9.4609-5.0547-14.828-5.0234h-117.12c-5.4844-0.16016-10.855 1.5625-15.223 4.8828-4.3672 3.3164-7.4648 8.0312-8.7773 13.355-1.1445 5.8477-1.6289 11.805-1.4414 17.762-0.011719 24.676 10.828 48.109 29.641 64.078z"/>
</svg>
